<?xml version="1.0" standalone="no"?>
<!DOCTYPE svg PUBLIC "-//W3C//DTD SVG 20010904//EN"
 "http://www.w3.org/TR/2001/REC-SVG-20010904/DTD/svg10.dtd">
<svg version="1.0" xmlns="http://www.w3.org/2000/svg"
 width="980.000000pt" height="972.000000pt" viewBox="0 0 980.000000 972.000000"
 preserveAspectRatio="xMidYMid meet">

<g transform="translate(0.000000,972.000000) scale(0.100000,-0.100000)"
fill="#000000" stroke="none">
<path d="M3760 9697 c-76 -26 -160 -84 -188 -130 -28 -44 -488 -1196 -1269
-3172 -449 -1135 -839 -2133 -874 -2233 l-18 -53 92 -43 c182 -85 581 -235
592 -224 3 2 32 74 66 159 92 232 994 2529 1262 3214 276 704 606 1539 649
1644 l31 73 41 -6 c187 -30 3930 -972 4639 -1168 97 -27 147 -45 147 -54 0
-114 -1179 -3383 -1734 -4808 -531 -1362 -828 -1833 -1291 -2046 -131 -61
-183 -71 -415 -77 -293 -8 -401 13 -550 105 -94 58 -253 211 -318 305 -173
253 -262 532 -307 961 -8 83 -16 151 -18 151 -1 1 -645 261 -1432 578 -2445
984 -2817 1129 -2842 1103 -13 -13 -21 -162 -22 -401 -1 -384 17 -530 90 -750
120 -358 363 -716 610 -897 204 -150 635 -357 2464 -1185 1376 -623 1402 -634
1625 -681 192 -42 327 -55 545 -56 236 0 352 14 571 69 689 173 1166 669 1635
1700 189 418 503 1242 1157 3040 451 1240 868 2414 1038 2925 54 164 58 181
58 270 0 84 -3 101 -27 147 -33 63 -77 115 -122 143 -94 58 -267 103 -2107
546 -2884 693 -3652 875 -3701 874 -6 0 -41 -11 -77 -23z"/>
<path d="M4740 8411 c-220 -74 -332 -251 -290 -457 16 -79 42 -127 103 -191
117 -124 314 -156 481 -80 150 69 238 234 215 403 -17 124 -117 261 -228 312
-75 35 -201 41 -281 13z"/>
<path d="M5955 7986 c-100 -32 -162 -91 -223 -215 -63 -127 -47 -222 60 -367
31 -42 59 -67 91 -82 122 -57 1707 -549 1803 -559 99 -11 255 65 317 154 50
73 61 111 61 213 0 165 -59 266 -189 326 -117 54 -855 285 -1397 438 -399 112
-437 119 -523 92z"/>
<path d="M4190 7242 c-166 -56 -266 -156 -300 -301 -18 -77 -7 -162 34 -246
42 -89 100 -149 184 -188 63 -30 74 -32 182 -32 105 0 120 2 175 28 81 38 120
70 160 130 72 111 87 282 34 397 -75 162 -306 266 -469 212z"/>
<path d="M5427 6819 c-107 -25 -201 -102 -249 -205 -39 -83 -42 -188 -8 -276
28 -74 108 -163 175 -194 169 -79 1525 -499 1721 -534 187 -33 333 32 403 180
23 49 26 67 26 165 0 100 -3 116 -28 170 -55 118 -90 140 -372 234 -519 172
-1552 474 -1613 470 -9 -1 -34 -5 -55 -10z"/>
<path d="M3630 6295 c-46 -108 -91 -238 -83 -245 4 -4 57 -26 117 -50 165 -66
152 -41 176 -330 42 -512 66 -954 56 -1024 -9 -56 -29 -79 -177 -192 -125 -97
-193 -170 -227 -244 -21 -44 -25 -69 -25 -140 0 -92 8 -116 57 -168 64 -69
199 -135 661 -324 677 -276 1205 -475 1227 -462 15 10 48 92 69 174 15 59 17
76 7 86 -16 14 -194 89 -738 307 -399 161 -756 309 -887 368 -31 14 -53 31
-53 40 0 31 220 224 247 216 10 -2 187 -72 393 -155 613 -245 719 -282 812
-282 97 0 198 72 788 558 194 160 304 263 326 304 8 16 14 56 14 96 l0 70
-352 141 c-194 78 -697 280 -1118 448 -421 168 -768 309 -772 312 -3 3 -10 84
-15 180 l-8 173 -35 14 c-19 7 -126 49 -238 93 l-204 79 -18 -43z"/>
<path d="M3417 3649 c-95 -22 -182 -95 -226 -189 -70 -153 12 -343 170 -395
105 -35 254 -8 327 59 98 89 109 320 20 421 -69 79 -199 126 -291 104z"/>
<path d="M4834 3050 c-74 -24 -127 -72 -163 -149 -36 -77 -37 -201 -2 -279 33
-74 106 -137 174 -152 85 -17 193 -15 225 6 50 33 145 129 158 161 18 43 18
203 0 246 -18 43 -116 134 -170 158 -67 29 -149 33 -222 9z"/>
</g>
</svg>
