<?xml version="1.0" standalone="no"?>
<!DOCTYPE svg PUBLIC "-//W3C//DTD SVG 20010904//EN"
 "http://www.w3.org/TR/2001/REC-SVG-20010904/DTD/svg10.dtd">
<svg version="1.0" xmlns="http://www.w3.org/2000/svg"
 width="980.000000pt" height="978.000000pt" viewBox="0 0 980.000000 978.000000"
 preserveAspectRatio="xMidYMid meet">

<g transform="translate(0.000000,978.000000) scale(0.100000,-0.100000)"
fill="#000000" stroke="none">
<path d="M8165 9770 c-77 -12 -184 -45 -260 -79 -114 -52 -183 -120 -4075
-4001 l-3005 -2997 -347 -1049 c-374 -1127 -478 -1453 -478 -1491 0 -37 35
-96 73 -121 54 -36 92 -37 208 -7 57 14 625 200 1262 412 l1159 385 2885 2881
c1587 1585 3151 3152 3475 3481 l589 599 49 101 c162 332 122 733 -98 993 -99
118 -584 599 -695 690 -181 149 -321 203 -547 208 -74 2 -162 0 -195 -5z m351
-394 c97 -30 172 -93 475 -395 394 -394 428 -443 436 -641 11 -243 -21 -301
-367 -661 l-193 -201 -684 684 -683 683 118 118 c154 156 322 308 391 355 31
20 85 47 121 60 59 20 78 22 200 18 85 -2 154 -10 186 -20z m-582 -1487 l661
-658 -135 -135 c-74 -75 -139 -136 -145 -136 -14 0 -1345 1332 -1345 1346 0 6
59 68 130 138 119 116 132 126 152 115 12 -6 319 -308 682 -670z m-931 -141
l249 -241 -2569 -2569 -2568 -2568 -325 0 -325 0 -110 110 -110 110 2070 2071
c1139 1139 2366 2363 2727 2720 l658 650 27 -21 c16 -11 140 -129 276 -262z
m780 -779 c147 -143 267 -266 267 -272 0 -21 -5429 -5437 -5449 -5437 -7 0
-57 43 -112 97 l-99 96 0 337 0 337 2555 2551 c1405 1404 2558 2552 2563 2552
5 0 129 -117 275 -261z m-6499 -4928 l30 -31 346 0 347 0 6 -322 c3 -180 10
-338 16 -358 6 -19 45 -73 87 -120 95 -106 128 -149 121 -156 -12 -13 -755
-254 -781 -254 -19 0 -227 194 -452 421 l-211 214 135 407 136 407 95 -89 c53
-48 109 -102 125 -119z m-264 -1375 c0 -20 -271 -116 -514 -183 -17 -5 -18 -1
-12 33 4 21 44 148 88 283 l80 246 179 -183 c99 -100 179 -188 179 -196z"/>
</g>
</svg>
